<?xml version="1.0" encoding="UTF-8" standalone="no"?>
<!-- Created with Inkscape (http://www.inkscape.org/) -->

<svg
   width="113.10792mm"
   height="145.91855mm"
   viewBox="0 0 113.10792 145.91855"
   version="1.1"
   id="svg1"
   xml:space="preserve"
   xmlns="http://www.w3.org/2000/svg"
   xmlns:svg="http://www.w3.org/2000/svg"><defs
     id="defs1" /><g
     id="layer1"
     transform="translate(-48.852132,-15.478517)"><path
       style="fill:none;stroke:#000000;stroke-width:2;stroke-dasharray:none;stroke-opacity:1"
       d="m 63.708221,69.33984 c -5.88337,18.929104 -0.223952,35.07941 4.530932,56.63464 1.418033,6.42834 4.609175,12.62502 8.865202,17.64704 3.578865,4.22298 7.471067,9.56853 12.489737,11.90408 4.537356,2.11156 10.678988,3.58118 10.678988,3.58118 l 13.55733,1.27899 15.85952,-3.83698 7.41816,-6.39497 9.60615,-14.38726 5.10021,-24.92544 1.279,-16.882711 -0.89324,-11.079639 -3.14038,-19.036082 c 0,0 -5.46428,-3.78349 -10.92855,-7.566981 l -3.32538,-16.88271 -16.11532,-6.394968 -12.27833,-0.511596 -17.65011,3.58118 -4.860176,2.813786 -3.325381,14.324726 z"
       id="path1" /><path
       style="fill:none;stroke:#000000;stroke-width:2;stroke-linejoin:round;stroke-dasharray:none;stroke-opacity:1"
       d="m 61.574835,96.43965 c 0,0 -3.359687,1.104961 -4.241977,0 -1.878572,-2.352682 -4.908112,-7.729481 -6.226352,-12.05611 -0.98769,-3.241721 -1.10507,-6.711326 -1.164273,-10.099657 -0.03736,-2.138139 -0.324471,-4.426712 0.511598,-6.394966 1.208498,-2.845019 3.048283,-6.982122 6.139168,-6.949966 3.669517,0.03817 7.115222,8.400889 7.115222,8.400889 l -2.6127,-4.844846 c 0,0 0.870891,-22.483943 5.268043,-28.507486 3.604662,-4.937933 8.647833,-8.940347 14.068928,-11.766739 8.381855,-4.370042 17.948021,-6.663737 27.370528,-7.418162 6.49522,-0.520049 13.54786,-0.734555 19.44063,2.04639 6.48876,3.062208 11.56886,8.992949 15.34792,15.092121 2.3149,3.736107 3.98107,7.242468 3.98107,7.242468 l 2.48719,22.659102 1.01441,-7.092085 c 0,0 3.45834,-2.347688 5.21289,-1.799375 2.42542,0.757963 3.52454,3.804656 4.50746,6.14795 0.92537,2.20609 1.22609,4.692036 1.15548,7.083304 -0.13553,4.590118 -1.908,8.985728 -3.01635,13.442084 -0.47254,1.899947 0.0347,3.849238 -1.68078,4.792692 -0.87141,0.479236 -2.71937,-0.0041 -2.71937,-0.0041 l -4.47374,-22.570484 -10.92855,-7.566981 -3.32538,-16.88271 -16.11532,-6.394968 -12.27833,-0.511596 -17.650112,3.58118 -4.860174,2.813786 -3.325381,14.324726 -16.868362,16.133715 -2.362237,12.479171 z"
       id="path2" /><path
       style="fill:none;stroke:#000000;stroke-width:2;stroke-linejoin:round;stroke-dasharray:none;stroke-opacity:1"
       d="m 79.585869,67.467111 c 0,0 3.093397,-1.053276 4.702802,-1.266137 3.227677,-0.426894 6.69651,-1.081685 9.767356,0 3.901715,1.374353 9.670433,7.77771 9.670433,7.77771 -7.678714,-7.1473 -7.571583,-10.555835 -24.140591,-6.511573 z"
       id="path3" /><path
       style="fill:none;stroke:#000000;stroke-width:2;stroke-linejoin:round;stroke-dasharray:none;stroke-opacity:1"
       d="m 120.46407,74.083825 5.06455,-4.007991 8.04903,-3.422668 4.97411,0.271317 c 0,0 -3.27396,-0.632705 -4.88367,-0.361754 -2.91409,0.490509 -5.60253,1.99769 -8.13947,3.513105 -1.84824,1.104026 -5.06455,4.007991 -5.06455,4.007991 z"
       id="path4" /><path
       style="fill:none;stroke:#000000;stroke-width:2;stroke-linecap:round;stroke-linejoin:round;stroke-dasharray:none;stroke-opacity:1"
       d="m 83.959706,84.348404 c 0.193049,0 4.118639,-3.803228 11.1974,-2.876527 0,0 -4.890403,-0.423953 -5.698109,-0.20532 -0.851534,0.230497 -5.658364,3.081847 -5.499291,3.081847 z"
       id="path5" /><path
       style="fill:none;stroke:#000000;stroke-width:2;stroke-linejoin:round;stroke-dasharray:none;stroke-opacity:1"
       d="m 124.44605,81.983476 c 0,0 5.15064,-1.438891 7.54607,-0.642173 1.46196,0.486248 3.45328,3.07226 3.45328,3.07226 0,0 -1.99132,-2.586012 -3.45328,-3.07226 -2.39543,-0.796718 -7.54607,0.642173 -7.54607,0.642173 z"
       id="path6" /><path
       style="fill:none;stroke:#000000;stroke-width:2;stroke-linecap:round;stroke-linejoin:round;stroke-dasharray:none;stroke-opacity:1"
       d="m 101.29581,96.965737 c 0,0 -2.348141,3.759253 -2.808421,5.882903 -0.487737,2.25033 0.576939,5.77737 2.583631,6.90656 2.65534,1.4942 9.64154,3.80262 9.64154,3.80262 0,0 7.35138,-1.07191 10.45688,-4.90983 2.04447,-2.52665 1.88648,-6.06837 1.23512,-9.252634 -0.24111,-1.178673 -2.73519,-2.630418 -1.67413,-3.197484 1.02789,-0.549342 1.42294,1.931496 1.67413,3.069584 0.709,3.212354 1.73135,7.958584 -1.23512,9.380534 -2.45949,1.17893 -10.45688,4.90983 -10.45688,4.90983 l -9.64154,-3.80262 c 0,0 -3.071368,-4.65623 -2.583631,-6.90656 0.46028,-2.12365 2.808421,-5.882903 2.808421,-5.882903 z"
       id="path7" /><path
       style="fill:none;stroke:#000000;stroke-width:2;stroke-linecap:butt;stroke-linejoin:round;stroke-dasharray:none;stroke-opacity:1;paint-order:normal"
       d="m 95.181339,133.01531 c 0,0 2.668246,-6.4839 5.475441,-8.18556 2.0171,-1.22272 4.68791,-0.52842 7.03453,-0.76739 3.15261,-0.32105 6.42067,-1.77688 9.46448,-0.8953 2.9458,0.85319 7.27883,5.62757 7.27883,5.62757 l 1.80922,3.96488 -2.82098,-2.55798 -6.90656,-0.5116 -4.73228,1.27899 -7.97452,-0.5116 z"
       id="path8" /><path
       style="fill:none;stroke:#000000;stroke-width:2;stroke-linejoin:round;stroke-dasharray:none;stroke-opacity:1;paint-order:normal"
       d="m 102.05847,147.34004 c -1.16423,-1.74634 3.59944,-2.29376 5.63284,-2.81379 3.3066,-0.84565 10.23188,-0.3837 10.23188,-0.3837 0,0 6.693,0.8951 5.75547,2.81379 -0.89568,1.83304 -3.50646,-2.25071 -5.49967,-2.68589 -3.41645,-0.74592 -7.09418,-0.58843 -10.48768,0.2558 -2.03676,0.5067 -4.46861,4.56013 -5.63284,2.81379 z"
       id="path9" /><ellipse
       style="fill:#000000;fill-opacity:1;stroke:none;stroke-width:2.99999;stroke-linecap:butt;stroke-linejoin:round;stroke-dasharray:none;stroke-opacity:1;paint-order:normal"
       id="path10"
       cx="89.994171"
       cy="84.348404"
       rx="1.9158266"
       ry="2.0688543" /><ellipse
       style="fill:#000000;fill-opacity:1;stroke:none;stroke-width:2.99999;stroke-linecap:butt;stroke-linejoin:round;stroke-dasharray:none;stroke-opacity:1;paint-order:normal"
       id="ellipse10"
       cx="130.72717"
       cy="83.335411"
       rx="1.9158266"
       ry="2.0688543" /></g></svg>
