<svg xml:space="preserve" xmlns="http://www.w3.org/2000/svg" fill="none" stroke="currentColor" id="profile" viewBox="0 0 113.108 145.919"><g transform="translate(-48.852 -15.479)"><path d="M63.708 69.34c-5.883 18.929-.224 35.08 4.531 56.634 1.418 6.429 4.61 12.625 8.865 17.648 3.58 4.222 7.471 9.568 12.49 11.904 4.537 2.111 10.68 3.58 10.68 3.58l13.556 1.28 15.86-3.837 7.418-6.395 9.606-14.387 5.1-24.926 1.28-16.883-.894-11.08-3.14-19.035-10.929-7.567-3.325-16.883-16.115-6.395-12.279-.512-17.65 3.582-4.86 2.813-3.325 14.325z"/><path d="M61.575 96.44s-3.36 1.105-4.242 0c-1.879-2.353-4.908-7.73-6.226-12.056-.988-3.242-1.106-6.712-1.165-10.1-.037-2.138-.324-4.427.512-6.395 1.208-2.845 3.048-6.982 6.139-6.95 3.67.038 7.115 8.4 7.115 8.4l-2.612-4.844s.87-22.484 5.268-28.507c3.604-4.938 8.647-8.94 14.068-11.767 8.382-4.37 17.949-6.664 27.371-7.418 6.495-.52 13.548-.735 19.44 2.046 6.49 3.062 11.57 8.993 15.349 15.092 2.314 3.736 3.98 7.243 3.98 7.243l2.488 22.659 1.014-7.092s3.459-2.348 5.213-1.8c2.426.758 3.525 3.805 4.508 6.148.925 2.206 1.226 4.692 1.155 7.083-.135 4.59-1.908 8.986-3.016 13.443-.473 1.9.034 3.849-1.681 4.792-.871.48-2.72-.004-2.72-.004l-4.473-22.57-10.929-7.567-3.325-16.883-16.115-6.395-12.279-.512-17.65 3.582-4.86 2.813-3.325 14.325L63.708 69.34l-2.362 12.479z"/><path d="M79.586 67.467s3.093-1.053 4.703-1.266c3.227-.427 6.696-1.082 9.767 0 3.902 1.374 9.67 7.778 9.67 7.778-7.678-7.148-7.571-10.556-24.14-6.512zM120.464 74.084l5.065-4.008 8.049-3.423 4.974.271s-3.274-.632-4.884-.361c-2.914.49-5.602 1.997-8.14 3.513-1.848 1.104-5.064 4.008-5.064 4.008z"/><path d="M83.96 84.348c.193 0 4.118-3.803 11.197-2.876 0 0-4.89-.424-5.698-.205-.852.23-5.658 3.081-5.5 3.081z"/><path d="M124.446 81.983s5.15-1.438 7.546-.642c1.462.487 3.453 3.073 3.453 3.073s-1.99-2.586-3.453-3.073c-2.395-.796-7.546.642-7.546.642z"/><path d="M101.296 96.966s-2.348 3.759-2.809 5.883c-.487 2.25.577 5.777 2.584 6.906 2.655 1.494 9.642 3.803 9.642 3.803s7.35-1.072 10.456-4.91c2.045-2.527 1.887-6.068 1.236-9.253-.242-1.178-2.736-2.63-1.675-3.197 1.028-.55 1.423 1.931 1.675 3.07.709 3.212 1.73 7.958-1.236 9.38-2.459 1.179-10.456 4.91-10.456 4.91l-9.642-3.803S98 105.1 98.487 102.85c.46-2.124 2.809-5.883 2.809-5.883z"/><path d="M95.181 133.015s2.669-6.484 5.476-8.185c2.017-1.223 4.688-.529 7.034-.768 3.153-.32 6.421-1.777 9.465-.895 2.946.853 7.279 5.628 7.279 5.628l1.809 3.965-2.821-2.558-6.907-.512-4.732 1.279-7.975-.512z"/><path d="M102.058 147.34c-1.164-1.746 3.6-2.294 5.633-2.814 3.307-.845 10.232-.383 10.232-.383s6.693.895 5.756 2.813c-.896 1.833-3.507-2.25-5.5-2.686-3.416-.745-7.094-.588-10.488.256-2.036.507-4.468 4.56-5.633 2.814z"/><ellipse cx="89.994" cy="84.348" rx="1.916" ry="2.069"/><ellipse cx="130.727" cy="83.335" rx="1.916" ry="2.069"/></g></svg>